<svg width="1400" height="900" viewBox="0 0 1400 900" fill="none" xmlns="http://www.w3.org/2000/svg">
  <defs>
    <linearGradient id="showBg" x1="140" y1="80" x2="1280" y2="840" gradientUnits="userSpaceOnUse">
      <stop stop-color="#18181B"/>
      <stop offset="1" stop-color="#0A0A0A"/>
    </linearGradient>
    <linearGradient id="panel" x1="0" y1="0" x2="0" y2="1">
      <stop stop-color="#27272A"/>
      <stop offset="1" stop-color="#17171A"/>
    </linearGradient>
  </defs>
  <rect width="1400" height="900" rx="28" fill="url(#showBg)"/>
  <rect x="40" y="40" width="1320" height="820" rx="24" fill="#111114" stroke="#FFFFFF" stroke-opacity="0.14"/>

  <rect x="74" y="74" width="230" height="752" rx="18" fill="url(#panel)" stroke="#FFFFFF" stroke-opacity="0.08"/>
  <rect x="100" y="110" width="124" height="16" rx="8" fill="#F59E0B"/>
  <rect x="100" y="154" width="168" height="12" rx="6" fill="#FFFFFF" fill-opacity="0.25"/>
  <rect x="100" y="184" width="152" height="12" rx="6" fill="#FFFFFF" fill-opacity="0.2"/>
  <rect x="100" y="214" width="170" height="12" rx="6" fill="#FFFFFF" fill-opacity="0.2"/>
  <rect x="100" y="272" width="168" height="12" rx="6" fill="#FFFFFF" fill-opacity="0.2"/>
  <rect x="100" y="302" width="136" height="12" rx="6" fill="#FFFFFF" fill-opacity="0.2"/>

  <rect x="336" y="74" width="990" height="92" rx="18" fill="#17171A" stroke="#FFFFFF" stroke-opacity="0.08"/>
  <rect x="372" y="110" width="250" height="18" rx="9" fill="#FFFFFF" fill-opacity="0.24"/>
  <rect x="1118" y="102" width="170" height="34" rx="12" fill="#F59E0B"/>

  <rect x="336" y="192" width="470" height="292" rx="20" fill="#17171A" stroke="#FFFFFF" stroke-opacity="0.08"/>
  <rect x="360" y="224" width="260" height="16" rx="8" fill="#FFFFFF" fill-opacity="0.24"/>
  <rect x="360" y="260" width="418" height="12" rx="6" fill="#FFFFFF" fill-opacity="0.18"/>
  <rect x="360" y="288" width="392" height="12" rx="6" fill="#FFFFFF" fill-opacity="0.18"/>
  <rect x="360" y="322" width="210" height="34" rx="10" fill="#F59E0B"/>

  <rect x="824" y="192" width="502" height="292" rx="20" fill="#17171A" stroke="#FFFFFF" stroke-opacity="0.08"/>
  <rect x="854" y="228" width="176" height="16" rx="8" fill="#FFFFFF" fill-opacity="0.24"/>
  <rect x="854" y="264" width="440" height="12" rx="6" fill="#FFFFFF" fill-opacity="0.18"/>
  <rect x="854" y="292" width="424" height="12" rx="6" fill="#FFFFFF" fill-opacity="0.18"/>
  <rect x="854" y="326" width="132" height="30" rx="10" fill="#FFFFFF" fill-opacity="0.2"/>

  <rect x="336" y="510" width="990" height="316" rx="20" fill="#17171A" stroke="#FFFFFF" stroke-opacity="0.08"/>
  <rect x="372" y="548" width="264" height="16" rx="8" fill="#FFFFFF" fill-opacity="0.24"/>
  <rect x="372" y="588" width="914" height="12" rx="6" fill="#FFFFFF" fill-opacity="0.18"/>
  <rect x="372" y="616" width="864" height="12" rx="6" fill="#FFFFFF" fill-opacity="0.18"/>
  <rect x="372" y="650" width="220" height="36" rx="10" fill="#F59E0B"/>
</svg>
